<svg xmlns="http://www.w3.org/2000/svg" display="none">
    <symbol id="instagram" viewBox="0 0 24 22">
        <g>
        <path d="M7.8 1.90735e-05H16.2C19.4032 1.90735e-05 22 2.59677 22 5.80002V14.2C22 17.4033 19.4032 20 16.2 20H7.8C4.59675 20 2 17.4033 2 14.2V5.80002C2 2.59677 4.59675 1.90735e-05 7.8 1.90735e-05ZM7.6 2C5.61177 2 4 3.61178 4 5.6V14.4C4 16.3882 5.61177 18 7.6 18H16.4C18.3882 18 20 16.3882 20 14.4V5.6C20 3.61178 18.3882 2 16.4 2H7.6ZM17.25 3.5C17.9404 3.5 18.5 4.05965 18.5 4.75C18.5 5.44036 17.9404 6 17.25 6C16.5596 6 16 5.44036 16 4.75C16 4.05965 16.5596 3.5 17.25 3.5ZM12 5C14.7614 5 17 7.23858 17 10C17 12.7614 14.7614 15 12 15C9.23857 15 7 12.7614 7 10C7 7.23858 9.23857 5 12 5ZM12 7C10.3431 7 9 8.3432 9 10C9 11.6569 10.3431 13 12 13C13.6569 13 15 11.6569 15 10C15 8.3432 13.6569 7 12 7Z" fill="white"/>
        </g>
        <defs>
        <filter id="filter0_d" x="-2" y="1.90735e-05" width="28" height="28" filterUnits="userSpaceOnUse" color-interpolation-filters="sRGB">
        <feFlood flood-opacity="0" result="BackgroundImageFix"/>
        <feColorMatrix in="SourceAlpha" type="matrix" values="0 0 0 0 0 0 0 0 0 0 0 0 0 0 0 0 0 0 127 0"/>
        <feOffset dy="4"/>
        <feGaussianBlur stdDeviation="2"/>
        <feColorMatrix type="matrix" values="0 0 0 0 0 0 0 0 0 0 0 0 0 0 0 0 0 0 0.25 0"/>
        <feBlend mode="normal" in2="BackgroundImageFix" result="effect1_dropShadow"/>
        <feBlend mode="normal" in="SourceGraphic" in2="effect1_dropShadow" result="shape"/>
        </filter>
        </defs>
    </symbol>
    <symbol id="twitter" viewBox="0 0 22 17">
        <path d="M21.4592 2.01238C20.6896 2.35373 19.8624 2.58442 18.9944 2.68815C19.8803 2.15701 20.5609 1.31598 20.8813 0.31378C20.052 0.80564 19.1336 1.16278 18.156 1.3552C17.3732 0.52112 16.2579 0 15.0235 0C12.6534 0 10.7317 1.92147 10.7317 4.29155C10.7317 4.6279 10.7697 4.95546 10.8429 5.2696C7.27609 5.0906 4.11375 3.38203 1.99709 0.78551C1.62765 1.41935 1.41601 2.15656 1.41601 2.94309C1.41601 4.43204 2.17364 5.74563 3.32523 6.5153C2.62179 6.4929 1.95996 6.2999 1.38139 5.97846C1.38098 5.99639 1.38098 6.0143 1.38098 6.0324C1.38098 8.1118 2.86033 9.8463 4.82359 10.2406C4.46349 10.3387 4.08434 10.3912 3.69294 10.3912C3.4164 10.3912 3.14755 10.3642 2.88546 10.3142C3.43161 12.0191 5.01653 13.26 6.89454 13.2945C5.42576 14.4457 3.57527 15.1318 1.56453 15.1318C1.21812 15.1318 0.876511 15.1114 0.540771 15.0717C2.44003 16.2894 4.69591 17 7.1195 17C15.0134 17 19.3302 10.4605 19.3302 4.78918C19.3302 4.60314 19.326 4.41805 19.3177 4.23395C20.1563 3.62886 20.8839 2.87302 21.4592 2.01238Z" fill="white"/>
    </symbol>
    <symbol id="account" viewBox="0 0 24 24">
        <path fill-rule="evenodd" clip-rule="evenodd" d="M12 2C6.48 2 2 6.48 2 12C2 17.52 6.48 22 12 22C17.52 22 22 17.52 22 12C22 6.48 17.52 2 12 2ZM7.07 18.28C7.5 17.38 10.12 16.5 12 16.5C13.88 16.5 16.51 17.38 16.93 18.28C15.57 19.36 13.86 20 12 20C10.14 20 8.43 19.36 7.07 18.28ZM18.36 16.83C16.93 15.09 13.46 14.5 12 14.5C10.54 14.5 7.07 15.09 5.64 16.83C4.62 15.49 4 13.82 4 12C4 7.59 7.59 4 12 4C16.41 4 20 7.59 20 12C20 13.82 19.38 15.49 18.36 16.83ZM12 6C10.06 6 8.5 7.56 8.5 9.5C8.5 11.44 10.06 13 12 13C13.94 13 15.5 11.44 15.5 9.5C15.5 7.56 13.94 6 12 6ZM12 11C11.17 11 10.5 10.33 10.5 9.5C10.5 8.67 11.17 8 12 8C12.83 8 13.5 8.67 13.5 9.5C13.5 10.33 12.83 11 12 11Z" fill="white"/>
        <mask id="mask0" mask-type="alpha" maskUnits="userSpaceOnUse" x="2" y="2" width="20" height="20">
        <path fill-rule="evenodd" clip-rule="evenodd" d="M12 2C6.48 2 2 6.48 2 12C2 17.52 6.48 22 12 22C17.52 22 22 17.52 22 12C22 6.48 17.52 2 12 2ZM7.07 18.28C7.5 17.38 10.12 16.5 12 16.5C13.88 16.5 16.51 17.38 16.93 18.28C15.57 19.36 13.86 20 12 20C10.14 20 8.43 19.36 7.07 18.28ZM18.36 16.83C16.93 15.09 13.46 14.5 12 14.5C10.54 14.5 7.07 15.09 5.64 16.83C4.62 15.49 4 13.82 4 12C4 7.59 7.59 4 12 4C16.41 4 20 7.59 20 12C20 13.82 19.38 15.49 18.36 16.83ZM12 6C10.06 6 8.5 7.56 8.5 9.5C8.5 11.44 10.06 13 12 13C13.94 13 15.5 11.44 15.5 9.5C15.5 7.56 13.94 6 12 6ZM12 11C11.17 11 10.5 10.33 10.5 9.5C10.5 8.67 11.17 8 12 8C12.83 8 13.5 8.67 13.5 9.5C13.5 10.33 12.83 11 12 11Z" fill="white"/>
        </mask>
        <g mask="url(#mask0)">
        </g>
    </symbol>
    <symbol id="arrow-down" viewBox="0 0 16 24">
        <path d="M16 16L14.59 14.59L9 20.17V0H7V20.17L1.42 14.58L0 16L8 24L16 16Z" fill="white"/>
    </symbol>
    <symbol id="arrow-right" viewBox="0 0 24 16">
        <path d="M16 -6.99382e-07L14.59 1.41L20.17 7L-3.93402e-07 7L-3.0598e-07 9L20.17 9L14.58 14.58L16 16L24 8L16 -6.99382e-07Z" fill="#FBD784"/>
    </symbol>
</svg>