<svg width="24" height="22" viewBox="0 0 24 22" fill="none" xmlns="http://www.w3.org/2000/svg">
<g filter="url(#filter0_d)">
<path d="M7.8 1.90735e-05H16.2C19.4032 1.90735e-05 22 2.59677 22 5.80002V14.2C22 17.4033 19.4032 20 16.2 20H7.8C4.59675 20 2 17.4033 2 14.2V5.80002C2 2.59677 4.59675 1.90735e-05 7.8 1.90735e-05ZM7.6 2C5.61177 2 4 3.61178 4 5.6V14.4C4 16.3882 5.61177 18 7.6 18H16.4C18.3882 18 20 16.3882 20 14.4V5.6C20 3.61178 18.3882 2 16.4 2H7.6ZM17.25 3.5C17.9404 3.5 18.5 4.05965 18.5 4.75C18.5 5.44036 17.9404 6 17.25 6C16.5596 6 16 5.44036 16 4.75C16 4.05965 16.5596 3.5 17.25 3.5ZM12 5C14.7614 5 17 7.23858 17 10C17 12.7614 14.7614 15 12 15C9.23857 15 7 12.7614 7 10C7 7.23858 9.23857 5 12 5ZM12 7C10.3431 7 9 8.3432 9 10C9 11.6569 10.3431 13 12 13C13.6569 13 15 11.6569 15 10C15 8.3432 13.6569 7 12 7Z" fill="white"/>
</g>
<defs>
<filter id="filter0_d" x="-2" y="1.90735e-05" width="28" height="28" filterUnits="userSpaceOnUse" color-interpolation-filters="sRGB">
<feFlood flood-opacity="0" result="BackgroundImageFix"/>
<feColorMatrix in="SourceAlpha" type="matrix" values="0 0 0 0 0 0 0 0 0 0 0 0 0 0 0 0 0 0 127 0"/>
<feOffset dy="4"/>
<feGaussianBlur stdDeviation="2"/>
<feColorMatrix type="matrix" values="0 0 0 0 0 0 0 0 0 0 0 0 0 0 0 0 0 0 0.25 0"/>
<feBlend mode="normal" in2="BackgroundImageFix" result="effect1_dropShadow"/>
<feBlend mode="normal" in="SourceGraphic" in2="effect1_dropShadow" result="shape"/>
</filter>
</defs>
</svg>
